<?xml version="1.0" encoding="iso-8859-1"?>
<!-- Generator: Adobe Illustrator 21.1.0, SVG Export Plug-In . SVG Version: 6.00 Build 0)  -->
<svg version="1.1" id="Layer_1" xmlns="http://www.w3.org/2000/svg" xmlns:xlink="http://www.w3.org/1999/xlink" x="0px" y="0px"
	 viewBox="0 0 100.25 100.25" style="enable-background:new 0 0 100.25 100.25;" xml:space="preserve">
<g>
	<path d="M58.684,11.665c-0.5-0.257-1.104-0.211-1.56,0.118l-27.503,19.81H14c-0.829,0-1.5,0.671-1.5,1.5V67.06
		c0,0.829,0.671,1.5,1.5,1.5h15.624l27.504,19.661c0.259,0.186,0.565,0.28,0.872,0.28c0.234,0,0.47-0.055,0.686-0.166
		c0.5-0.257,0.814-0.772,0.814-1.334v-74C59.5,12.437,59.185,11.922,58.684,11.665z M56.5,84.084L30.977,65.839
		c-0.254-0.182-0.559-0.28-0.872-0.28H15.501V34.592h14.604c0.314,0,0.622-0.099,0.876-0.283L56.5,15.929L56.5,84.084L56.5,84.084z"
		/>
	<path d="M71.265,33.71c-0.71-0.422-1.632-0.188-2.055,0.525c-0.423,0.712-0.188,1.633,0.525,2.055
		C73.483,38.513,76,44.033,76,50.026c0,6.034-2.43,11.408-6.191,13.691c-0.708,0.43-0.934,1.353-0.504,2.061
		c0.282,0.465,0.777,0.722,1.284,0.722c0.265,0,0.534-0.07,0.777-0.218C76.004,63.466,79,57.085,79,50.026
		C79,42.902,75.964,36.497,71.265,33.71z"/>
	<path d="M79.982,23.867c-0.625-0.542-1.573-0.475-2.116,0.151c-0.542,0.625-0.475,1.573,0.151,2.116
		c5.938,5.148,9.482,13.953,9.482,23.552c0,9.342-3.399,18.017-9.094,23.206c-0.612,0.558-0.656,1.507-0.099,2.119
		c0.296,0.325,0.702,0.49,1.109,0.49c0.36,0,0.722-0.129,1.01-0.391c6.308-5.749,10.073-15.252,10.073-25.424
		C90.5,39.229,86.568,29.577,79.982,23.867z"/>
</g>
</svg>
