<?xml version="1.0" encoding="iso-8859-1"?>
<!-- Generator: Adobe Illustrator 21.1.0, SVG Export Plug-In . SVG Version: 6.00 Build 0)  -->
<svg version="1.1" id="Layer_1" xmlns="http://www.w3.org/2000/svg" xmlns:xlink="http://www.w3.org/1999/xlink" x="0px" y="0px"
	 viewBox="0 0 100.75 100.75" style="enable-background:new 0 0 100.75 100.75;" xml:space="preserve">
<g>
	<path d="M55.201,66.802c-0.436-0.705-1.358-0.924-2.064-0.488l-9.772,6.029c-3.167,1.956-7.79,0.93-9.697-2.15L20.384,48.66
		c-0.937-1.517-1.227-3.309-0.815-5.047c0.412-1.737,1.474-3.21,2.993-4.147l10.143-6.263c0.705-0.435,0.923-1.359,0.488-2.064
		l-8.408-13.624c-0.435-0.705-1.358-0.925-2.064-0.489L12.584,23.28C1.31,30.238,1.711,48.517,13.562,67.732
		C19,76.544,25.841,83.551,32.826,87.461c4.095,2.293,8.127,3.444,11.882,3.444c3.143,0,6.091-0.808,8.715-2.428l9.699-5.988
		c0.705-0.435,0.923-1.359,0.488-2.064L55.201,66.802z M51.848,85.926c-6.14,3.792-12.937,1.504-17.556-1.082
		c-6.547-3.665-13.002-10.302-18.176-18.687C5.193,48.446,4.388,31.864,14.16,25.833l8.86-5.467l6.833,11.071l-8.867,5.475
		c-2.2,1.358-3.74,3.492-4.335,6.009c-0.596,2.518-0.177,5.115,1.182,7.313l13.285,21.534c2.781,4.495,9.242,5.956,13.824,3.126
		l8.495-5.241l6.834,11.071L51.848,85.926z"/>
	<path d="M90.008,9.094H49.332c-3.087,0-5.599,2.515-5.599,5.607v24.446c0,3.089,2.512,5.602,5.599,5.602h4.78v9.947
		c0,0.594,0.35,1.131,0.893,1.372c0.195,0.086,0.401,0.128,0.606,0.128c0.366,0,0.728-0.134,1.009-0.39l12.174-11.058h21.213
		c3.087,0,5.599-2.513,5.599-5.602V14.7C95.607,11.61,93.095,9.094,90.008,9.094z M92.607,39.148c0,1.435-1.166,2.602-2.599,2.602
		H68.215c-0.373,0-0.732,0.139-1.008,0.39l-10.095,9.169V43.25c0-0.829-0.671-1.5-1.5-1.5h-6.28c-1.433,0-2.599-1.167-2.599-2.602
		V14.702c0-1.438,1.166-2.607,2.599-2.607h40.676c1.433,0,2.599,1.169,2.599,2.607V39.148z"/>
	<path d="M57.883,21.78c-1.028,0.002-1.992,0.404-2.714,1.132c-0.718,0.723-1.111,1.68-1.106,2.697
		c0.01,2.098,1.731,3.802,3.843,3.802c0.003,0,0.006,0,0.009,0c2.109-0.011,3.82-1.729,3.815-3.829
		c-0.002-1.015-0.401-1.969-1.124-2.686C59.878,22.172,58.894,21.749,57.883,21.78z M57.904,26.41L57.904,26.41
		c-0.47,0-0.838-0.358-0.84-0.815c-0.001-0.214,0.082-0.416,0.234-0.569c0.158-0.159,0.349-0.231,0.6-0.246
		c0.226,0,0.437,0.086,0.596,0.244c0.153,0.152,0.237,0.353,0.238,0.564C58.732,26.039,58.358,26.408,57.904,26.41z"/>
	<path d="M69.194,21.78c-1.03,0.002-1.996,0.405-2.718,1.133c-0.718,0.722-1.11,1.68-1.105,2.695
		c0.009,2.098,1.73,3.802,3.843,3.802c0.003,0,0.006,0,0.009,0c2.113-0.011,3.825-1.73,3.815-3.833
		c-0.003-1.013-0.402-1.966-1.124-2.683C71.186,22.172,70.213,21.788,69.194,21.78z M70.037,25.591
		c0.002,0.449-0.371,0.816-0.826,0.819H69.21c-0.461,0-0.837-0.365-0.839-0.815c-0.001-0.214,0.082-0.416,0.234-0.568
		c0.158-0.159,0.419-0.241,0.604-0.247c0.224,0,0.433,0.086,0.591,0.243c0.089,0.088,0.238,0.279,0.238,0.565
		C70.037,25.589,70.037,25.59,70.037,25.591z"/>
	<path d="M80.501,21.78c-1.029,0.002-1.995,0.404-2.718,1.132c-0.717,0.722-1.11,1.679-1.106,2.696
		c0.01,2.098,1.731,3.802,3.844,3.802c0.003,0,0.006,0,0.009,0c2.111-0.011,3.822-1.729,3.815-3.829
		c-0.002-1.015-0.402-1.969-1.125-2.687C82.492,22.171,81.556,21.788,80.501,21.78z M81.344,25.591
		c0.002,0.449-0.371,0.817-0.826,0.819c0,0-0.001,0-0.002,0c-0.461,0-0.837-0.365-0.839-0.815c-0.001-0.214,0.083-0.416,0.234-0.569
		c0.158-0.16,0.331-0.218,0.604-0.247c0.224,0,0.434,0.086,0.591,0.243c0.089,0.088,0.238,0.279,0.238,0.565
		C81.344,25.589,81.344,25.59,81.344,25.591z"/>
</g>
</svg>
