<?xml version="1.0" encoding="iso-8859-1"?>
<!-- Generator: Adobe Illustrator 21.1.0, SVG Export Plug-In . SVG Version: 6.00 Build 0)  -->
<svg version="1.1" id="Layer_1" xmlns="http://www.w3.org/2000/svg" xmlns:xlink="http://www.w3.org/1999/xlink" x="0px" y="0px"
	 viewBox="0 0 100.353 100.353" style="enable-background:new 0 0 100.353 100.353;" xml:space="preserve">
<g>
	<path d="M51.951,53.44c-20.057,0-36.375,16.929-36.375,37.736c0,0.828,0.671,1.5,1.5,1.5h69.75c0.828,0,1.5-0.672,1.5-1.5
		C88.326,70.368,72.009,53.44,51.951,53.44z M18.607,89.676c0.757-18.46,15.424-33.236,33.344-33.236s32.587,14.776,33.345,33.236
		H18.607z"/>
	<path d="M51.323,49.318c11.568,0,20.979-9.74,20.979-21.713S62.892,5.892,51.323,5.892c-11.569,0-20.98,9.741-20.98,21.713
		S39.754,49.318,51.323,49.318z M51.323,8.892c9.914,0,17.979,8.395,17.979,18.713s-8.065,18.713-17.979,18.713
		c-9.915,0-17.98-8.395-17.98-18.713S41.409,8.892,51.323,8.892z"/>
</g>
</svg>
